<?xml version="1.0" encoding="utf-8"?>
<!-- Generator: Adobe Illustrator 16.0.0, SVG Export Plug-In . SVG Version: 6.00 Build 0)  -->
<!DOCTYPE svg PUBLIC "-//W3C//DTD SVG 1.1//EN" "http://www.w3.org/Graphics/SVG/1.1/DTD/svg11.dtd">
<svg version="1.1" id="レイヤー_1" xmlns="http://www.w3.org/2000/svg" xmlns:xlink="http://www.w3.org/1999/xlink" x="0px"
	 y="0px" width="640px" height="300px" viewBox="0 0 640 300" enable-background="new 0 0 640 300" xml:space="preserve">
<line fill="none" stroke="#000000" stroke-width="7" stroke-linejoin="round" stroke-miterlimit="10" x1="163" y1="192.5" x2="471" y2="192.5"/>
<rect x="32.5" y="73.5" fill="#FFFFFF" stroke="#000000" stroke-width="7" stroke-linejoin="round" stroke-miterlimit="10" width="131" height="131"/>
<g>
	<path d="M105.832,164.424c0-0.636,0-1.237,0-1.803c-0.071-3.713-2.458-5.498-7.161-5.357c-1.309,0.07-2.883,0.459-4.721,1.166
		c-1.839,0.709-3.483,1.805-4.933,3.289l-31.826,30.659v-11.245l58.029-55.112H64.989v-7.373l61.689-0.212v6.896l-27.211,25.037
		c1.804-0.141,3.952,0.045,6.445,0.557c2.493,0.513,4.305,1.388,5.437,2.626c1.131,1.202,1.963,2.607,2.493,4.217
		s0.743,2.775,0.637,3.5c-0.106,0.726-0.125,1.194-0.053,1.406l-1.432,10.979c-0.071,0.603-0.106,1.167-0.106,1.697
		c0,1.592,0.309,2.909,0.928,3.952c0.618,1.044,1.512,1.804,2.679,2.281s2.387,0.805,3.66,0.981s2.812,0.301,4.615,0.371
		c6.436,0,13.102-1.467,19.998-4.403l1.061-0.477v8.327l-0.478,0.213c-0.39,0.176-0.981,0.415-1.777,0.716
		c-0.796,0.3-1.309,0.485-1.539,0.557c-0.23,0.07-0.636,0.194-1.22,0.371s-0.964,0.283-1.141,0.318
		c-0.177,0.035-0.486,0.124-0.928,0.266c-0.442,0.141-0.795,0.229-1.061,0.265c-0.265,0.035-0.583,0.098-0.955,0.187
		c-0.371,0.088-0.769,0.167-1.193,0.238c-0.424,0.07-0.875,0.141-1.353,0.212c-0.478,0.07-1.07,0.142-1.777,0.212
		c-4.88,0.707-9.636,0.778-14.269,0.213c-0.496,0-0.92-0.036-1.273-0.106c-4.456-0.778-7.886-2.538-10.291-5.277
		c-2.405-2.74-3.218-6.197-2.44-10.37L105.832,164.424z M75.863,102.417v-8.222h44.769v8.222H75.863z"/>
</g>
<rect x="179.484" y="73.023" fill="#3E243C" stroke="#000000" stroke-width="7" stroke-linejoin="round" stroke-miterlimit="10" width="131.001" height="131"/>
<g>
	<path fill="#FFFFFF" d="M203.086,142.114l0.005-8.54l54.104,0.14l-4.128-15.332l-44.344-0.134l0.005-8.222l42.01,0.026
		l-5.028-18.145l8.964-0.206l4.869,18.356l24.453,0.015l-0.005,8.222l-22.066-0.014l4.021,15.438l22.49,0.014l-0.005,8.434
		l-20.156-0.119l4.128,14.908l-8.964-0.006l-4.075-14.801L203.086,142.114z M207.743,160.522l8.434,0.006l0,0.742
		c-0.001,2.44,0.183,4.598,0.553,6.472c0.37,1.875,1.005,3.617,1.906,5.226c0.901,1.61,2.199,2.858,3.896,3.743
		c1.697,0.885,3.819,1.327,6.365,1.329l52.036-0.073l-0.005,8.381l-54.316-0.034c-6.506-0.5-11.429-3.137-14.768-7.912
		c-3.339-4.776-4.706-10.487-4.1-17.137L207.743,160.522z"/>
</g>
<rect x="325.5" y="73.5" fill="#FFFFFF" stroke="#000000" stroke-width="7" stroke-linejoin="round" stroke-miterlimit="10" width="131" height="131"/>
<g>
	<path d="M347.592,141.879v-8.54l54.105,0.106l-4.139-15.33l-44.344-0.106v-8.222h42.01l-5.039-18.141l8.965-0.212l4.88,18.353
		h19.892v8.222h-17.504l4.031,15.436h22.49v8.434l-20.156-0.106l4.137,14.905h-8.965l-4.084-14.798H347.592z M352.26,160.285h8.434
		v0.742c0,2.44,0.187,4.598,0.558,6.472c0.372,1.875,1.008,3.616,1.909,5.225c0.902,1.609,2.201,2.856,3.898,3.74
		c1.698,0.884,3.82,1.325,6.365,1.325l52.036-0.105v8.381h-54.316c-6.507-0.496-11.431-3.13-14.772-7.903
		c-3.342-4.774-4.713-10.484-4.111-17.134V160.285z M415.7,91.541h7.532l11.139,24.612h-7.531L415.7,91.541z M428.537,91.541h7.479
		l11.139,24.612h-7.531L428.537,91.541z"/>
</g>
<rect x="470.5" y="73.5" fill="#FFFFFF" stroke="#000000" stroke-width="7" stroke-linejoin="round" stroke-miterlimit="10" width="131" height="131"/>
<g>
	<path d="M514.537,119.548c4.102-2.228,8.574-4.111,13.42-5.649c4.844-1.539,8.301-2.448,10.369-2.732
		c2.069-0.283,3.811-0.459,5.226-0.53c1.308-6.118,2.122-11.475,2.44-16.072v-0.849h8.964l-0.212,0.902
		c-0.566,6.153-1.433,11.688-2.6,16.603c9.548,0.636,17.672,4.368,24.373,11.192c6.701,6.825,10.053,15.277,10.053,25.355
		c0,3.749-0.531,7.524-1.592,11.325c-1.061,3.802-2.74,7.506-5.039,11.112c-2.299,3.607-5.074,6.835-8.328,9.681
		c-3.254,2.847-7.275,5.225-12.067,7.135c-4.792,1.909-10.034,3.005-15.728,3.288l-0.901,0.212v-8.381h0.849
		c5.092-0.317,9.84-1.538,14.242-3.659c4.402-2.122,8.036-4.836,10.9-8.143c2.864-3.306,5.101-6.913,6.71-10.821
		c1.608-3.906,2.448-7.823,2.52-11.749c0-7.779-2.75-14.472-8.248-20.077c-5.499-5.604-12.156-8.478-19.972-8.62
		c-0.105,0.531-0.283,1.389-0.529,2.573c-0.248,1.185-0.814,3.554-1.697,7.108c-0.885,3.554-1.83,7.011-2.838,10.37
		c-1.008,3.36-2.37,7.152-4.085,11.377c-1.716,4.226-3.474,7.984-5.278,11.272c-8.062,14.534-16.23,21.801-24.506,21.801
		c-0.637,0-1.309-0.036-2.016-0.106c-2.511-0.247-4.906-1.061-7.188-2.439c-2.28-1.379-4.367-3.263-6.258-5.649
		c-1.893-2.387-3.263-5.498-4.111-9.336c-0.85-3.836-0.99-8.054-0.425-12.65c1.308-11.28,6.737-20.917,16.284-28.909
		c-1.132-3.677-2.264-8.416-3.395-14.216c-1.132-5.799-1.769-10.254-1.91-13.367l-0.265-0.796h8.964v0.743
		C511.16,102.61,512.449,110.177,514.537,119.548z M499.26,153.496c-0.141,1.344-0.211,2.67-0.211,3.979
		c0,5.127,1.157,9.361,3.474,12.703c2.315,3.342,5.136,5.013,8.46,5.013c1.557,0,3.598-0.929,6.127-2.785
		c2.527-1.856,4.712-4.163,6.551-6.922c-5.941-10.749-10.484-21.765-13.632-33.046c-2.829,2.44-5.208,5.552-7.135,9.335
		C500.966,145.558,499.755,149.464,499.26,153.496z M516.977,127.345c2.511,9.407,6.383,19.255,11.617,29.545
		c0.742-1.449,1.732-3.482,2.971-6.1c1.236-2.617,2.934-7.046,5.092-13.288c2.156-6.241,3.889-12.456,5.197-18.645
		c-2.793,0.071-6.656,0.894-11.59,2.466C525.331,122.899,520.902,124.905,516.977,127.345z"/>
</g>
<line fill="none" stroke="#000000" stroke-width="7" stroke-linejoin="round" stroke-miterlimit="10" x1="31" y1="230.5" x2="599" y2="230.5"/>
<circle fill="none" stroke="#000000" stroke-width="7" stroke-linejoin="round" stroke-miterlimit="10" cx="51.755" cy="216.541" r="12.041"/>
<circle fill="none" stroke="#000000" stroke-width="7" stroke-linejoin="round" stroke-miterlimit="10" cx="134.756" cy="216.541" r="12.041"/>
<circle fill="none" stroke="#000000" stroke-width="7" stroke-linejoin="round" stroke-miterlimit="10" cx="204.665" cy="217.243" r="12.041"/>
<circle fill="none" stroke="#000000" stroke-width="7" stroke-linejoin="round" stroke-miterlimit="10" cx="285.749" cy="217.305" r="12.041"/>
<circle fill="none" stroke="#000000" stroke-width="7" stroke-linejoin="round" stroke-miterlimit="10" cx="350.756" cy="216.541" r="12.041"/>
<circle fill="none" stroke="#000000" stroke-width="7" stroke-linejoin="round" stroke-miterlimit="10" cx="430.756" cy="216.541" r="12.041"/>
<circle fill="none" stroke="#000000" stroke-width="7" stroke-linejoin="round" stroke-miterlimit="10" cx="497.756" cy="216.541" r="12.041"/>
<circle fill="none" stroke="#000000" stroke-width="7" stroke-linejoin="round" stroke-miterlimit="10" cx="578.756" cy="216.541" r="12.041"/>
</svg>
